<svg width="31" height="30" viewBox="0 0 31 30" fill="none" xmlns="http://www.w3.org/2000/svg">
<path d="M18 2.75005C17.1923 2.58608 16.3561 2.5 15.5 2.5C8.59644 2.5 3 8.09644 3 15C3 21.9035 8.59644 27.5 15.5 27.5C22.4035 27.5 28 21.9035 28 15C28 14.1439 27.9139 13.3078 27.75 12.5" stroke="white" stroke-width="2" stroke-linecap="round"/>
<path d="M15.5 11.25C14.1193 11.25 13 12.0895 13 13.125C13 14.1605 14.1193 15 15.5 15C16.8807 15 18 15.8395 18 16.875C18 17.9105 16.8807 18.75 15.5 18.75M15.5 11.25C16.5885 11.25 17.5145 11.7718 17.8577 12.5M15.5 11.25V10M15.5 18.75C14.4115 18.75 13.4855 18.2282 13.1423 17.5M15.5 18.75V20" stroke="white" stroke-width="2" stroke-linecap="round"/>
<path d="M21.7475 8.75244L26.9674 3.52969M27.9975 8.10024L27.8498 4.23588C27.8498 3.32508 27.306 2.75759 26.3154 2.68602L22.4102 2.50244" stroke="white" stroke-width="2" stroke-linecap="round" stroke-linejoin="round"/>
</svg>
