<svg width="20" height="20" viewBox="0 0 20 20" fill="none" xmlns="http://www.w3.org/2000/svg">
<path d="M1.66663 12.5C1.7856 12.8562 1.92515 13.2026 2.08381 13.5377M3.43785 15.6219C3.70128 15.9281 3.98413 16.2163 4.28443 16.4845M7.49996 18.3333C7.12683 18.2131 6.76413 18.0687 6.41363 17.9018" stroke="white" stroke-width="1.25" stroke-linecap="round" stroke-linejoin="round"/>
<path d="M10 11.25C10.6903 11.25 11.25 10.6903 11.25 10C11.25 9.30967 10.6903 8.75 10 8.75C9.30967 8.75 8.75 9.30967 8.75 10M10 11.25C9.30967 11.25 8.75 10.6903 8.75 10M10 11.25V13.3333M8.75 10H5" stroke="white" stroke-width="1.25" stroke-linecap="round"/>
<path d="M9.99996 18.3333C14.6023 18.3333 18.3333 14.6023 18.3333 9.99996C18.3333 5.39758 14.6023 1.66663 9.99996 1.66663C5.39758 1.66663 1.66663 5.39758 1.66663 9.99996" stroke="white" stroke-width="1.25" stroke-linecap="round"/>
</svg>
