<svg width="898" height="142" viewBox="0 0 898 142" fill="none" xmlns="http://www.w3.org/2000/svg">
<path d="M83.3846 97C50.6923 97 43.6699 60.8908 18 70.7838C10.1737 73.8 7.02944 77.9245 0 82.5V141.5H898V72C898 72 880.545 82.6418 868 84C830.556 88.0538 835.308 13.1081 802.615 13.1081C769.923 13.1081 769.923 15.7297 737.231 15.7297C704.538 15.7297 704.538 39.3243 671.846 39.3243C639.154 39.3243 639.154 52.4324 606.462 52.4324C573.769 52.4324 573.769 78.6487 541.077 78.6487C508.385 78.6487 508.385 26.2162 475.692 26.2162C443 26.2162 443 60.2973 410.308 60.2973C377.615 60.2973 377.615 28.8378 344.923 28.8378C312.231 28.8378 312.231 0 279.538 0C246.846 0 246.846 20.973 214.154 20.973C181.462 20.973 181.462 65.5405 148.769 65.5405C116.077 65.5405 116.077 97 83.3846 97Z" fill="url(#paint0_linear_314_2135)"/>
<defs>
<linearGradient id="paint0_linear_314_2135" x1="449" y1="141.5" x2="449" y2="-164.5" gradientUnits="userSpaceOnUse">
<stop stop-opacity="0"/>
<stop offset="0.6875" stop-opacity="0.8"/>
</linearGradient>
</defs>
</svg>
