<svg width="162" height="162" viewBox="0 0 162 162" fill="none" xmlns="http://www.w3.org/2000/svg">
<mask id="mask0_314_2156" style="mask-type:alpha" maskUnits="userSpaceOnUse" x="0" y="0" width="162" height="162">
<path d="M162 81C162 125.735 125.735 162 81 162C36.2649 162 0 125.735 0 81C0 36.2649 36.2649 0 81 0C125.735 0 162 36.2649 162 81ZM12.798 81C12.798 118.667 43.3331 149.202 81 149.202C118.667 149.202 149.202 118.667 149.202 81C149.202 43.3331 118.667 12.798 81 12.798C43.3331 12.798 12.798 43.3331 12.798 81Z" fill="white" fill-opacity="0.5"/>
</mask>
<g mask="url(#mask0_314_2156)">
<path d="M162 81C162 125.735 125.735 162 81 162C36.2649 162 0 125.735 0 81C0 36.2649 36.2649 0 81 0C125.735 0 162 36.2649 162 81ZM12.798 81C12.798 118.667 43.3331 149.202 81 149.202C118.667 149.202 149.202 118.667 149.202 81C149.202 43.3331 118.667 12.798 81 12.798C43.3331 12.798 12.798 43.3331 12.798 81Z" fill="white" fill-opacity="0.4"/>
</g>
<mask id="mask1_314_2156" style="mask-type:alpha" maskUnits="userSpaceOnUse" x="-1" y="0" width="163" height="163">
<path d="M81 6.399C81 2.86493 83.8696 -0.0262943 87.3926 0.252569C103.032 1.49047 118.026 7.25008 130.515 16.8961C144.696 27.8501 154.845 43.1975 159.372 60.5356C163.9 77.8737 162.55 96.2237 155.534 112.713C148.518 129.202 136.233 142.899 120.601 151.66C104.969 160.42 86.8734 163.75 69.1469 161.128C51.4203 158.506 35.0637 150.079 22.6378 137.168C10.2119 124.257 2.41814 107.589 0.476764 89.7755C-1.2328 74.0885 1.68085 58.2923 8.78787 44.3064C10.3889 41.1558 14.3528 40.2172 17.3673 42.0618C20.3817 43.9064 21.3001 47.8347 19.746 51.0088C14.0906 62.5591 11.7967 75.5177 13.1994 88.3889C14.8341 103.388 21.3964 117.422 31.859 128.294C42.3217 139.165 56.0939 146.26 71.0197 148.468C85.9454 150.676 101.182 147.872 114.344 140.495C127.506 133.119 137.85 121.586 143.758 107.702C149.665 93.8184 150.801 78.3677 146.989 63.769C143.177 49.1703 134.632 36.2478 122.691 27.0245C112.445 19.1099 100.194 14.3027 87.3899 13.0979C83.8714 12.7668 81 9.93307 81 6.399Z" fill="url(#paint0_linear_314_2156)"/>
</mask>
<g mask="url(#mask1_314_2156)">
<path d="M81 6.399C81 2.86493 83.8695 -0.0262887 87.3926 0.252592C101.539 1.37238 115.183 6.19367 126.933 14.2831C140.445 23.5854 150.813 36.771 156.667 52.095C162.521 67.4191 163.584 84.1594 159.716 100.101C155.847 116.042 147.23 130.434 135.004 141.37C122.778 152.307 107.519 159.274 91.2465 161.349C74.9742 163.424 58.4553 160.51 43.8756 152.992C29.2959 145.473 17.3426 133.705 9.59728 119.245C2.86193 106.67 -0.415184 92.5742 0.0419691 78.3912C0.155822 74.859 3.34765 72.3281 6.85989 72.7203C10.3721 73.1125 12.8697 76.2805 12.8083 79.814C12.6064 91.4142 15.3678 102.913 20.8789 113.202C27.4004 125.378 37.4651 135.286 49.7412 141.617C62.0174 147.947 75.9263 150.401 89.6275 148.654C103.329 146.907 116.177 141.041 126.471 131.832C136.766 122.623 144.021 110.506 147.279 97.0829C150.536 83.6602 149.641 69.5649 144.712 56.662C139.783 43.7592 131.052 32.6569 119.676 24.8243C110.062 18.2052 98.9406 14.1848 87.3897 13.0979C83.8712 12.7668 81 9.93307 81 6.399Z" fill="url(#paint1_linear_314_2156)"/>
</g>
<defs>
<linearGradient id="paint0_linear_314_2156" x1="1.08193e-06" y1="70.9017" x2="81" y2="9.65833e-06" gradientUnits="userSpaceOnUse">
<stop stop-color="#0071E3" stop-opacity="0.2"/>
<stop offset="1" stop-color="#0071E3"/>
</linearGradient>
<linearGradient id="paint1_linear_314_2156" x1="12.4332" y1="127.482" x2="81" y2="1.0855e-05" gradientUnits="userSpaceOnUse">
<stop stop-color="#445078"/>
<stop offset="1" stop-color="#0A1844"/>
</linearGradient>
</defs>
</svg>
