<svg width="438" height="105" viewBox="0 0 438 105" fill="none" xmlns="http://www.w3.org/2000/svg">
<mask id="mask0_314_2315" style="mask-type:alpha" maskUnits="userSpaceOnUse" x="0" y="0" width="438" height="105">
<g clip-path="url(#clip0_314_2315)">
<path d="M56.8058 51.187C32.1626 54.0203 -0.6604 72.211 -0.6604 72.211V104.741H438V17.8385C438 17.8385 404.877 3.36766 382.449 5.51405C346.748 8.93064 354.069 49.4254 319.236 56.2617C277.765 64.4009 262.36 19.1372 219.628 21.4633C178.934 23.6785 171.114 59.4478 130.555 62.7864C101.311 65.1935 85.8881 47.8432 56.8058 51.187Z" fill="url(#paint0_linear_314_2315)"/>
<path d="M1.21729 72.211C1.21729 72.211 33.8998 54.0203 58.4375 51.187C87.3953 47.8432 102.752 65.1935 131.871 62.7864C172.257 59.4478 180.043 23.6785 220.562 21.4633C263.112 19.1372 278.45 64.4009 319.744 56.2617C354.429 49.4254 347.139 8.93064 382.687 5.51405C405.019 3.36766 438 17.8385 438 17.8385" stroke="#0071E3" stroke-width="4" stroke-linecap="round"/>
</g>
</mask>
<g mask="url(#mask0_314_2315)">
</g>
<g clip-path="url(#clip1_314_2315)">
<path d="M56.8058 51.187C32.1626 54.0203 -0.6604 72.211 -0.6604 72.211V104.741H438V17.8385C438 17.8385 404.877 3.36766 382.449 5.51405C346.748 8.93064 354.069 49.4254 319.236 56.2617C277.765 64.4009 262.36 19.1372 219.628 21.4633C178.934 23.6785 171.114 59.4478 130.555 62.7864C101.311 65.1935 85.8881 47.8432 56.8058 51.187Z" fill="url(#paint1_linear_314_2315)"/>
<path d="M1.21729 72.211C1.21729 72.211 33.8998 54.0203 58.4375 51.187C87.3953 47.8432 102.752 65.1935 131.871 62.7864C172.257 59.4478 180.043 23.6785 220.562 21.4633C263.112 19.1372 278.45 64.4009 319.744 56.2617C354.429 49.4254 347.139 8.93064 382.687 5.51405C405.019 3.36766 438 17.8385 438 17.8385" stroke="black" stroke-width="4" stroke-linecap="round"/>
</g>
<defs>
<linearGradient id="paint0_linear_314_2315" x1="218.67" y1="20.608" x2="218.67" y2="104.741" gradientUnits="userSpaceOnUse">
<stop stop-color="#389BFF"/>
<stop offset="1" stop-color="#0071E3" stop-opacity="0"/>
</linearGradient>
<linearGradient id="paint1_linear_314_2315" x1="218.67" y1="104.741" x2="218.67" y2="-110.311" gradientUnits="userSpaceOnUse">
<stop stop-opacity="0"/>
<stop offset="0.649038" stop-opacity="0.5"/>
</linearGradient>
<clipPath id="clip0_314_2315">
<rect width="438" height="105" fill="white"/>
</clipPath>
<clipPath id="clip1_314_2315">
<rect width="438" height="105" fill="white"/>
</clipPath>
</defs>
</svg>
