<svg width="28" height="28" viewBox="0 0 28 28" fill="none" xmlns="http://www.w3.org/2000/svg">
<path d="M18.0833 14C18.0833 16.2552 16.2552 18.0834 14 18.0834C11.7448 18.0834 9.91666 16.2552 9.91666 14C9.91666 11.7449 11.7448 9.91669 14 9.91669C16.2552 9.91669 18.0833 11.7449 18.0833 14Z" stroke="black" stroke-width="1.25"/>
<path d="M24.5128 16.4459C25.1217 16.2818 25.4262 16.1996 25.5464 16.0426C25.6667 15.8857 25.6667 15.6331 25.6667 15.128V12.8721C25.6667 12.367 25.6667 12.1144 25.5464 11.9575C25.4261 11.8005 25.1217 11.7183 24.5128 11.5542C22.2374 10.9405 20.8132 8.56159 21.4005 6.30101C21.562 5.67932 21.6427 5.36848 21.5656 5.18617C21.4885 5.00385 21.2673 4.87823 20.8246 4.62695L18.8125 3.48451C18.3783 3.23795 18.1611 3.11467 17.9663 3.14092C17.7714 3.16717 17.5516 3.38651 17.1117 3.82518C15.4093 5.52356 12.5925 5.52349 10.8901 3.82508C10.4503 3.3864 10.2305 3.16706 10.0356 3.1408C9.8407 3.11455 9.62356 3.23783 9.18928 3.4844L7.17715 4.62684C6.73462 4.8781 6.51335 5.00372 6.43624 5.186C6.35913 5.3683 6.43985 5.67918 6.60129 6.30093C7.18826 8.56158 5.76301 10.9406 3.48719 11.5542C2.87831 11.7183 2.57386 11.8005 2.45359 11.9574C2.33333 12.1144 2.33333 12.367 2.33333 12.8721V15.128C2.33333 15.6331 2.33333 15.8857 2.45359 16.0426C2.57384 16.1996 2.87829 16.2818 3.48719 16.4459C5.76263 17.0596 7.18676 19.4385 6.59951 21.6991C6.438 22.3208 6.35725 22.6316 6.43435 22.8139C6.51147 22.9963 6.73274 23.1219 7.17529 23.3731L9.18744 24.5156C9.62174 24.7621 9.8389 24.8855 10.0338 24.8592C10.2287 24.833 10.4485 24.6135 10.8882 24.1748C12.5915 22.4751 15.4103 22.475 17.1137 24.1747C17.5533 24.6135 17.7731 24.8328 17.9681 24.8591C18.1629 24.8853 18.3801 24.762 18.8144 24.5155L20.8265 23.373C21.2691 23.1218 21.4905 22.9962 21.5675 22.8138C21.6446 22.6315 21.5638 22.3207 21.4023 21.6989C20.8147 19.4385 22.2377 17.0597 24.5128 16.4459Z" stroke="black" stroke-width="1.25" stroke-linecap="round"/>
</svg>
