<svg width="28" height="28" viewBox="0 0 28 28" fill="none" xmlns="http://www.w3.org/2000/svg">
<path d="M2.7435 15.4157C2.33164 12.7356 2.12571 11.3956 2.63241 10.2076C3.13909 9.01963 4.26324 8.20683 6.51154 6.58123L8.19136 5.36666C10.9882 3.34444 12.3866 2.33333 14.0002 2.33333C15.6137 2.33333 17.0122 3.34444 19.8091 5.36666L21.4888 6.58123C23.7372 8.20683 24.8613 9.01963 25.368 10.2076C25.8747 11.3956 25.6688 12.7356 25.2569 15.4157L24.9058 17.7011C24.3218 21.5004 24.0299 23.4001 22.6674 24.5334C21.3048 25.6667 19.3128 25.6667 15.3288 25.6667H12.6716C8.6876 25.6667 6.6956 25.6667 5.33304 24.5334C3.97048 23.4001 3.67856 21.5004 3.09471 17.7011L2.7435 15.4157Z" fill="white"/>
<path d="M17.5002 19.8333C16.5675 20.5595 15.3421 21 14.0002 21C12.6582 21 11.433 20.5595 10.5002 19.8333" stroke="black" stroke-width="1.75" stroke-linecap="round"/>
</svg>
