<svg width="28" height="28" viewBox="0 0 28 28" fill="none" xmlns="http://www.w3.org/2000/svg">
<path fill-rule="evenodd" clip-rule="evenodd" d="M18.305 8.00448C18.5873 7.80615 18.8522 7.58098 19.0785 7.32781C19.4903 6.86698 19.8333 6.24865 19.8333 5.49965C19.8333 4.72265 19.4635 4.11365 18.9898 3.68781C18.5395 3.28181 17.9725 3.01465 17.4312 2.83265C16.345 2.46515 15.0407 2.33331 14 2.33331C12.9593 2.33331 11.655 2.46515 10.5688 2.83265C10.0275 3.01465 9.4605 3.28181 9.01017 3.68781C8.5365 4.11365 8.16667 4.72265 8.16667 5.49965C8.16667 6.24865 8.50967 6.86698 8.9215 7.32665C9.15216 7.58183 9.41174 7.80931 9.695 8.00448C6.2125 9.66465 3.5 13.2241 3.5 17.5C3.5 20.482 4.69 22.617 6.727 23.9458C8.68117 25.2198 11.2817 25.6666 14 25.6666C16.7183 25.6666 19.32 25.2198 21.273 23.9458C23.31 22.617 24.5 20.4808 24.5 17.5C24.5 13.2241 21.7875 9.66465 18.305 8.00448ZM10.57 5.42148C10.5428 5.44471 10.5192 5.47183 10.5 5.50198C10.5 5.51365 10.5093 5.60231 10.6598 5.77148C10.8232 5.95465 11.0973 6.16231 11.4788 6.35948C12.2488 6.75848 13.2323 6.99998 14 6.99998C14.7677 6.99998 15.7523 6.75848 16.5212 6.35948C16.9027 6.16231 17.1757 5.95465 17.3402 5.77148C17.4907 5.60231 17.4988 5.51481 17.5 5.50198C17.4808 5.47182 17.4572 5.44469 17.43 5.42148C17.3063 5.31181 17.0683 5.17298 16.6845 5.04231C15.9215 4.78565 14.8925 4.66665 14 4.66665C13.1075 4.66665 12.0785 4.78448 11.3155 5.04231C10.9305 5.17298 10.6925 5.31065 10.57 5.42148ZM13.2942 12.8951C13.2286 12.7533 13.1353 12.6261 13.0197 12.521C12.904 12.4159 12.7685 12.3351 12.621 12.2834C12.4736 12.2317 12.3173 12.2102 12.1613 12.2201C12.0054 12.2299 11.853 12.271 11.7133 12.3409C11.5735 12.4108 11.4493 12.508 11.3478 12.6268C11.2463 12.7457 11.1698 12.8836 11.1227 13.0326C11.0756 13.1816 11.0589 13.3385 11.0735 13.4941C11.0882 13.6496 11.134 13.8006 11.2082 13.9381L11.8207 15.1666H11.6667C11.3572 15.1666 11.0605 15.2896 10.8417 15.5084C10.6229 15.7271 10.5 16.0239 10.5 16.3333C10.5 16.6427 10.6229 16.9395 10.8417 17.1583C11.0605 17.3771 11.3572 17.5 11.6667 17.5H12.8333V18.0833H11.6667C11.3572 18.0833 11.0605 18.2062 10.8417 18.425C10.6229 18.6438 10.5 18.9406 10.5 19.25C10.5 19.5594 10.6229 19.8561 10.8417 20.0749C11.0605 20.2937 11.3572 20.4166 11.6667 20.4166H12.8333V21C12.8333 21.3094 12.9562 21.6061 13.175 21.8249C13.3938 22.0437 13.6906 22.1666 14 22.1666C14.3094 22.1666 14.6062 22.0437 14.825 21.8249C15.0437 21.6061 15.1667 21.3094 15.1667 21V20.4166H16.3333C16.6428 20.4166 16.9395 20.2937 17.1583 20.0749C17.3771 19.8561 17.5 19.5594 17.5 19.25C17.5 18.9406 17.3771 18.6438 17.1583 18.425C16.9395 18.2062 16.6428 18.0833 16.3333 18.0833H15.1667V17.5H16.3333C16.6428 17.5 16.9395 17.3771 17.1583 17.1583C17.3771 16.9395 17.5 16.6427 17.5 16.3333C17.5 16.0239 17.3771 15.7271 17.1583 15.5084C16.9395 15.2896 16.6428 15.1666 16.3333 15.1666H16.1793L16.793 13.9381C16.8672 13.8006 16.9129 13.6496 16.9276 13.4941C16.9423 13.3385 16.9256 13.1816 16.8785 13.0326C16.8314 12.8836 16.7548 12.7457 16.6534 12.6268C16.5519 12.508 16.4276 12.4108 16.2879 12.3409C16.1481 12.271 15.9958 12.2299 15.8398 12.2201C15.6839 12.2102 15.5276 12.2317 15.3801 12.2834C15.2327 12.3351 15.0971 12.4159 14.9815 12.521C14.8659 12.6261 14.7725 12.7533 14.707 12.8951L14 14.3068L13.2942 12.8951Z" fill="black" fill-opacity="0.6"/>
</svg>
