<svg width="39" height="38" viewBox="0 0 39 38" fill="none" xmlns="http://www.w3.org/2000/svg">
<path d="M3.69373 11.0869C7.17638 11.0869 9.99964 8.26366 9.99964 4.78101" stroke="black" stroke-width="2.25" stroke-linecap="round" stroke-linejoin="round"/>
<path d="M29 4.78101V4.92653C29 8.32881 31.7582 11.0869 35.1604 11.0869" stroke="black" stroke-width="2.25" stroke-linecap="round" stroke-linejoin="round"/>
<path d="M3.69417 20.6134C7.17661 20.6137 9.99999 23.4341 9.99999 26.9167C7.54036 26.8426 6.07329 26.5682 5.0579 25.5528C4.04287 24.5379 3.76839 23.0714 3.69417 20.6134ZM3.69417 20.6134C3.69402 20.6134 3.69432 20.6134 3.69417 20.6134ZM3.69417 20.6134C3.66666 19.7024 3.66666 18.6551 3.66666 17.4441V14.25C3.66666 9.77165 3.66666 7.53249 5.0579 6.14124C6.44914 4.75 8.68831 4.75 13.1667 4.75H25.8333C30.3116 4.75 32.5508 4.75 33.942 6.14124C35.3333 7.53249 35.3333 9.77165 35.3333 14.25V17.4441C35.3333 21.9225 35.3333 24.1617 33.942 25.5528C32.9267 26.5682 31.4595 26.8453 29 26.9194C29 23.4672 31.8009 20.663 35.242 20.614" stroke="black" stroke-width="2.25" stroke-linecap="round" stroke-linejoin="round"/>
<path d="M19.5 26.9167V33.2501" stroke="black" stroke-width="2.25" stroke-linecap="round" stroke-linejoin="round"/>
<path d="M24.25 26.9167V30.0834" stroke="black" stroke-width="2.25" stroke-linecap="round" stroke-linejoin="round"/>
<path d="M14.75 26.9167V30.0834" stroke="black" stroke-width="2.25" stroke-linecap="round" stroke-linejoin="round"/>
<path d="M24.25 15.8396C24.25 13.2162 22.1234 11.0896 19.5 11.0896C16.8766 11.0896 14.75 13.2162 14.75 15.8396C14.75 18.463 16.8766 20.5896 19.5 20.5896C22.1234 20.5896 24.25 18.463 24.25 15.8396Z" stroke="black" stroke-width="2.25" stroke-linecap="round" stroke-linejoin="round"/>
</svg>
