<svg width="39" height="38" viewBox="0 0 39 38" fill="none" xmlns="http://www.w3.org/2000/svg">
<path d="M3.69373 26.9131C7.17638 26.9131 9.99964 29.7363 9.99964 33.219" stroke="black" stroke-width="2.25" stroke-linecap="round" stroke-linejoin="round"/>
<path d="M29 33.219V33.0735C29 29.6712 31.7582 26.9131 35.1604 26.9131" stroke="black" stroke-width="2.25" stroke-linecap="round" stroke-linejoin="round"/>
<path d="M3.69419 17.3866C7.17662 17.3863 10 14.5659 10 11.0833C7.54038 11.1574 6.07331 11.4318 5.05792 12.4472C4.04289 13.4621 3.7684 14.9286 3.69419 17.3866ZM3.69419 17.3866C3.69403 17.3866 3.69433 17.3866 3.69419 17.3866ZM3.69419 17.3866C3.66667 18.2976 3.66667 19.3449 3.66667 20.5559V23.75C3.66667 28.2283 3.66667 30.4675 5.05792 31.8588C6.44916 33.25 8.68832 33.25 13.1667 33.25H25.8333C30.3116 33.25 32.5508 33.25 33.9421 31.8588C35.3333 30.4675 35.3333 28.2283 35.3333 23.75V20.5559C35.3333 16.0775 35.3333 13.8383 33.9421 12.4472C32.9267 11.4318 31.4596 11.1547 29 11.0806C29 14.5328 31.8009 17.337 35.242 17.386" stroke="black" stroke-width="2.25" stroke-linecap="round" stroke-linejoin="round"/>
<path d="M19.5 11.0833V4.74992" stroke="black" stroke-width="2.25" stroke-linecap="round" stroke-linejoin="round"/>
<path d="M24.25 11.0833V7.91659" stroke="black" stroke-width="2.25" stroke-linecap="round" stroke-linejoin="round"/>
<path d="M14.75 11.0833V7.91659" stroke="black" stroke-width="2.25" stroke-linecap="round" stroke-linejoin="round"/>
<path d="M24.25 22.1604C24.25 24.7838 22.1234 26.9104 19.5 26.9104C16.8766 26.9104 14.75 24.7838 14.75 22.1604C14.75 19.537 16.8766 17.4104 19.5 17.4104C22.1234 17.4104 24.25 19.537 24.25 22.1604Z" stroke="black" stroke-width="2.25" stroke-linecap="round" stroke-linejoin="round"/>
</svg>
