<svg width="64" height="64" viewBox="0 0 64 64" fill="none" xmlns="http://www.w3.org/2000/svg">
<rect width="64" height="64" rx="14" fill="url(#paint0_linear_314_2238)"/>
<path d="M38.1149 49.8583C38.4577 49.3268 38.0153 48.4756 37.1306 46.7731C36.6608 45.8688 34.0553 41.2946 34.9588 40.3784C35.195 40.1388 36.0284 40.3427 37.6952 40.7502C40.1426 41.3489 43.2882 41.1382 46.014 39.1656C56.3444 31.6897 37.741 13 31.5386 13C25.3362 13 6.73268 31.6897 17.0631 39.1656C19.7889 41.1382 22.9346 41.3489 25.3819 40.7502C27.0487 40.3427 27.8822 40.1388 28.1184 40.3784C29.0218 41.2946 26.4164 45.8688 25.9465 46.7731C25.0618 48.4756 24.6194 49.3268 24.9622 49.8583C25.7707 51.1117 36.9735 51.6277 38.1149 49.8583Z" stroke="white" stroke-width="2.19231" stroke-linecap="round" stroke-linejoin="round"/>
<defs>
<linearGradient id="paint0_linear_314_2238" x1="32" y1="0" x2="32" y2="64" gradientUnits="userSpaceOnUse">
<stop stop-color="#626262"/>
<stop offset="1" stop-color="#1C1C1C"/>
</linearGradient>
</defs>
</svg>
