<svg width="39" height="38" viewBox="0 0 39 38" fill="none" xmlns="http://www.w3.org/2000/svg">
<path d="M30.4803 22.08L29.4189 16.3032C28.9606 13.8081 28.7313 12.5605 27.8236 11.8219C26.9159 11.0833 25.612 11.0833 23.0042 11.0833H15.9958C13.388 11.0833 12.0841 11.0833 11.1764 11.8219C10.2687 12.5605 10.0395 13.8081 9.58102 16.3032L8.51968 22.08C7.56812 27.2589 7.09235 29.8484 8.55741 31.5493C10.0225 33.2499 12.729 33.2499 18.142 33.2499H20.858C26.2711 33.2499 28.9775 33.2499 30.4426 31.5493C31.9076 29.8484 31.4318 27.2589 30.4803 22.08Z" stroke="black" stroke-width="1.75" stroke-linecap="round"/>
<path d="M19.5 16.625V26.9167M15.5417 23.75L19.5 27.7083L23.4584 23.75" stroke="black" stroke-width="1.75" stroke-linecap="round" stroke-linejoin="round"/>
<path d="M33.75 17.4167C33.9983 17.2914 34.2141 17.1336 34.4058 16.9345C35.3334 15.9719 35.3334 14.4225 35.3334 11.3236C35.3334 8.22478 35.3334 6.67536 34.4058 5.71268C33.4783 4.75 31.9856 4.75 29 4.75H10C7.01446 4.75 5.52167 4.75 4.59419 5.71268C3.66669 6.67536 3.66669 8.22478 3.66669 11.3236C3.66669 14.4225 3.66669 15.9719 4.59419 16.9345C4.78591 17.1336 5.00179 17.2914 5.25002 17.4167" stroke="black" stroke-width="1.75" stroke-linecap="round"/>
</svg>
