<svg width="898" height="97" viewBox="0 0 898 97" fill="none" xmlns="http://www.w3.org/2000/svg">
<path d="M0 82.5C7.02944 77.9245 10.1737 73.8 18 70.7838C43.6699 60.8908 50.6923 97 83.3846 97C116.077 97 116.077 65.5405 148.769 65.5405C181.462 65.5405 181.462 20.973 214.154 20.973C246.846 20.973 246.846 0 279.538 0C312.231 0 312.231 28.8378 344.923 28.8378C377.615 28.8378 377.615 60.2973 410.308 60.2973C443 60.2973 443 26.2162 475.692 26.2162C508.385 26.2162 508.385 78.6487 541.077 78.6487C573.769 78.6487 573.769 52.4324 606.462 52.4324C639.154 52.4324 639.154 39.3243 671.846 39.3243C704.538 39.3243 704.538 15.7297 737.231 15.7297C769.923 15.7297 769.923 13.1081 802.615 13.1081C835.308 13.1081 830.556 88.0538 868 84C880.545 82.6418 898 72 898 72" stroke="black" stroke-width="4" stroke-linecap="round"/>
</svg>
