<svg width="20" height="21" viewBox="0 0 20 21" fill="none" xmlns="http://www.w3.org/2000/svg">
<path d="M18.3334 10.5C18.3334 15.1024 14.6024 18.8334 10.0001 18.8334C5.39771 18.8334 1.66675 15.1024 1.66675 10.5C1.66675 5.89765 5.39771 2.16669 10.0001 2.16669C14.6024 2.16669 18.3334 5.89765 18.3334 10.5Z" stroke="white" stroke-width="1.25" stroke-linecap="round"/>
<path d="M10 18.8334C12.7614 18.8334 15 15.1024 15 10.5C15 5.89765 12.7614 2.16669 10 2.16669" stroke="white" stroke-width="1.25" stroke-linecap="round"/>
<path d="M9.1665 6.33331H9.174" stroke="white" stroke-width="1.25" stroke-linecap="round" stroke-linejoin="round"/>
<path d="M8.33325 12.5833C8.33325 13.2736 7.77361 13.8333 7.08325 13.8333C6.39289 13.8333 5.83325 13.2736 5.83325 12.5833C5.83325 11.893 6.39289 11.3333 7.08325 11.3333C7.77361 11.3333 8.33325 11.893 8.33325 12.5833Z" stroke="white" stroke-width="1.25" stroke-linecap="round"/>
</svg>
